<svg width="400" height="325" viewBox="0 0 400 325" fill="none" xmlns="http://www.w3.org/2000/svg">
<path d="M399.785 38.5509C385.084 45.0655 369.29 49.4673 352.687 51.4569C369.818 41.2059 382.635 25.0722 388.746 6.06595C372.65 15.6264 355.034 22.3559 336.664 25.9619C324.311 12.7719 307.948 4.02928 290.117 1.0915C272.286 -1.84627 253.983 1.18513 238.051 9.71506C222.119 18.245 209.449 31.7962 202.008 48.2648C194.567 64.7334 192.771 83.198 196.9 100.792C164.286 99.1543 132.381 90.6774 103.255 75.9114C74.1295 61.1454 48.4342 40.4201 27.8367 15.0808C20.7939 27.2296 16.7443 41.3152 16.7443 56.3164C16.7364 69.821 20.062 83.1186 26.426 95.0296C32.79 106.941 41.9956 117.097 53.2261 124.597C40.2017 124.182 27.4647 120.663 16.0752 114.332V115.388C16.0739 134.329 22.6256 152.686 34.6187 167.346C46.6117 182.006 63.3074 192.065 81.8727 195.817C69.7905 199.087 57.1232 199.569 44.8275 197.226C50.0656 213.523 60.2688 227.774 74.0089 237.985C87.7489 248.195 104.338 253.853 121.453 254.167C92.3988 276.975 56.5166 289.347 19.579 289.293C13.0359 289.295 6.49834 288.912 0 288.148C37.4938 312.255 81.1392 325.05 125.714 325C276.607 325 359.096 200.025 359.096 91.6362C359.096 88.1148 359.008 84.5581 358.849 81.0367C374.894 69.4332 388.744 55.0645 399.75 38.6038L399.785 38.5509Z" fill="white"/>
</svg>
